<svg xmlns="http://www.w3.org/2000/svg" width="158.656" height="40" viewBox="0 0 158.656 40"><g transform="translate(79.328 20)"><g transform="translate(-79.328 -20)"><g transform="translate(65.319 20.225)"><path d="M282.338,105.566a9.759,9.759,0,0,1-3.734-.708,9.113,9.113,0,0,1-3.034-1.993,9.628,9.628,0,0,1-2.8-6.864v-.053a9.667,9.667,0,0,1,2.767-6.847,9.3,9.3,0,0,1,3.08-2.057,10.092,10.092,0,0,1,3.9-.748,11.2,11.2,0,0,1,2.595.273,8.89,8.89,0,0,1,2.132.79,8.533,8.533,0,0,1,1.749,1.228,10.155,10.155,0,0,1,1.393,1.559l-1.831,1.422a3.011,3.011,0,0,1-3.531.15q-.122-.083-.247-.159a4.337,4.337,0,0,0-2.3-.578,4.109,4.109,0,0,0-1.786.387,4.28,4.28,0,0,0-1.388,1.048,4.887,4.887,0,0,0-.911,1.563,5.472,5.472,0,0,0-.328,1.906v.053a5.66,5.66,0,0,0,.334,1.945,4.847,4.847,0,0,0,.916,1.573A4.256,4.256,0,0,0,280.7,100.5a4.1,4.1,0,0,0,1.787.381,5.073,5.073,0,0,0,1.31-.161,5.585,5.585,0,0,0,1.414-.714,3.08,3.08,0,0,1,3.5.068l1.826,1.3a13.8,13.8,0,0,1-1.44,1.67,8.292,8.292,0,0,1-1.771,1.327,9.269,9.269,0,0,1-2.222.877A11.084,11.084,0,0,1,282.338,105.566Z" transform="translate(-272.765 -85.856)" fill="#2cc3ff"/><path d="M352.8,84.461l1.9,0a3.155,3.155,0,0,1,3.161,3.15l.029,16.168-5.056.009Z" transform="translate(-333.636 -84.458)" fill="#2cc3ff"/><path d="M387.821,118.925a8.379,8.379,0,0,1-3.164-.577,7.733,7.733,0,0,1-2.5-1.6,7.213,7.213,0,0,1-2.233-5.251v-.053a7.164,7.164,0,0,1,.59-2.9,7.37,7.37,0,0,1,1.65-2.385,7.889,7.889,0,0,1,2.512-1.619,8.316,8.316,0,0,1,3.176-.6,8.214,8.214,0,0,1,3.164.59,8.055,8.055,0,0,1,2.5,1.6,7.1,7.1,0,0,1,1.645,2.353,7.215,7.215,0,0,1,.587,2.884v.053a7.164,7.164,0,0,1-.591,2.9,7.362,7.362,0,0,1-1.65,2.385A7.89,7.89,0,0,1,391,118.324,8.314,8.314,0,0,1,387.821,118.925Zm.045-4.288a3.005,3.005,0,0,0,1.244-.252,2.735,2.735,0,0,0,.938-.684,3.142,3.142,0,0,0,.594-1.012,3.484,3.484,0,0,0,.21-1.208v-.053a3.38,3.38,0,0,0-.227-1.233,3.083,3.083,0,0,0-.637-1.01,3.207,3.207,0,0,0-.967-.694,2.817,2.817,0,0,0-1.218-.261,3.007,3.007,0,0,0-1.244.252,2.728,2.728,0,0,0-.938.685,3.126,3.126,0,0,0-.594,1.012,3.473,3.473,0,0,0-.21,1.208v.052a3.364,3.364,0,0,0,.227,1.234,3.07,3.07,0,0,0,.637,1.01,3.2,3.2,0,0,0,.967.694A2.808,2.808,0,0,0,387.867,114.637Z" transform="translate(-354.26 -99.277)" fill="#2cc3ff"/><path d="M456.83,119.766a4.654,4.654,0,0,1-3.608-1.4,5.489,5.489,0,0,1-1.3-3.862l-.017-9.37,1.927,0a3.129,3.129,0,0,1,3.134,3.123l.008,4.628a2.609,2.609,0,0,0,.552,1.8,1.874,1.874,0,0,0,1.464.606,1.966,1.966,0,0,0,1.475-.611,2.5,2.5,0,0,0,.585-1.8l-.013-7.756,5.056-.009.019,10.859a3.462,3.462,0,0,1-3.456,3.468l-1.594,0,0-1.959a7.033,7.033,0,0,1-1.7,1.591A4.433,4.433,0,0,1,456.83,119.766Z" transform="translate(-409.008 -100.165)" fill="#2cc3ff"/><path d="M523.493,104.526a5.863,5.863,0,0,1-2.421-.519,5.983,5.983,0,0,1-2.01-1.472,7.208,7.208,0,0,1-1.374-2.331,8.766,8.766,0,0,1-.512-3.1v-.053a9.2,9.2,0,0,1,.505-3.136,7.035,7.035,0,0,1,1.376-2.354,6.065,6.065,0,0,1,2.008-1.48,5.741,5.741,0,0,1,2.4-.513,5.044,5.044,0,0,1,2.64.625,7.255,7.255,0,0,1,1.741,1.445l0-3.448a3.3,3.3,0,0,1,3.306-3.3l1.753,0-.019,15.931a3.393,3.393,0,0,1-3.4,3.389l-1.663,0,.029-1.906a7.807,7.807,0,0,1-1.749,1.559A4.7,4.7,0,0,1,523.493,104.526Zm1.527-4.207a2.722,2.722,0,0,0,1.133-.237,2.777,2.777,0,0,0,.923-.674,3.2,3.2,0,0,0,.621-1.032,3.7,3.7,0,0,0,.226-1.31v-.053a3.587,3.587,0,0,0-.222-1.3,3.229,3.229,0,0,0-.618-1.02,2.773,2.773,0,0,0-.921-.676,2.813,2.813,0,0,0-2.266,0,2.865,2.865,0,0,0-.923.661,3.218,3.218,0,0,0-.634,1.018,3.513,3.513,0,0,0-.239,1.31v.053a3.509,3.509,0,0,0,.235,1.31,3.384,3.384,0,0,0,.631,1.033,2.774,2.774,0,0,0,.922.676A2.719,2.719,0,0,0,525.02,100.319Z" transform="translate(-458.647 -84.79)" fill="#2cc3ff"/></g><g transform="translate(0 20.65)"><path d="M8.678,105.425a14.379,14.379,0,0,1-4.724-.778A11.452,11.452,0,0,1,0,102.325l1.5-1.789a2.372,2.372,0,0,1,2.965-.552,9.018,9.018,0,0,0,4.406,1.153,3.061,3.061,0,0,0,1.575-.328,1.041,1.041,0,0,0,.544-.938v-.052a1,1,0,0,0-.132-.516,1.358,1.358,0,0,0-.489-.436,5.056,5.056,0,0,0-.952-.411q-.6-.2-1.548-.412-1.482-.345-2.752-.756a8.411,8.411,0,0,1-2.209-1.06,4.789,4.789,0,0,1-1.481-1.614,4.819,4.819,0,0,1-.54-2.392V92.17a5.7,5.7,0,0,1,.493-2.377A5.275,5.275,0,0,1,2.81,87.918a6.731,6.731,0,0,1,2.265-1.226,9.543,9.543,0,0,1,2.992-.432,13.331,13.331,0,0,1,4.248.631,10.721,10.721,0,0,1,3.373,1.855l-1.32,1.865a2.376,2.376,0,0,1-2.951.772,9.566,9.566,0,0,0-.906-.37,7.881,7.881,0,0,0-2.58-.466,2.323,2.323,0,0,0-1.39.342,1.023,1.023,0,0,0-.464.845v.053a1.037,1.037,0,0,0,.145.555,1.32,1.32,0,0,0,.5.437,5.532,5.532,0,0,0,.979.4q.622.2,1.575.411a22.648,22.648,0,0,1,2.871.809,8.606,8.606,0,0,1,2.183,1.126,4.5,4.5,0,0,1,1.374,1.6,4.872,4.872,0,0,1,.474,2.233v.053a5.706,5.706,0,0,1-.546,2.536,5.446,5.446,0,0,1-1.524,1.887,6.893,6.893,0,0,1-2.357,1.186A10.751,10.751,0,0,1,8.678,105.425Z" transform="translate(0 -86.253)" fill="#0074ff"/><path d="M73.495,88.219l2.147,0a3.015,3.015,0,0,1,3.02,3.01l.027,15.514-2.147,0a3.015,3.015,0,0,1-3.02-3.01Z" transform="translate(-55.895 -87.74)" fill="#0074ff"/><path d="M111.3,105.836a11.173,11.173,0,0,1-4.012-.694,9.565,9.565,0,0,1-3.193-1.967,9.1,9.1,0,0,1-2.123-3.027,9.584,9.584,0,0,1-.775-3.877v-.053A9.588,9.588,0,0,1,104,89.371a9.393,9.393,0,0,1,3.15-2.057,10.546,10.546,0,0,1,3.979-.748,11.419,11.419,0,0,1,4.25.707,11.637,11.637,0,0,1,3.273,1.979l-1.564,1.886a2.545,2.545,0,0,1-3.11.635q-.2-.1-.391-.182a6.083,6.083,0,0,0-2.423-.446,4.4,4.4,0,0,0-1.865.4,4.692,4.692,0,0,0-1.494,1.088,5.2,5.2,0,0,0-1,1.616,5.284,5.284,0,0,0-.367,1.986v.053a5.622,5.622,0,0,0,.375,2.064,4.65,4.65,0,0,0,1.052,1.626,4.924,4.924,0,0,0,1.6,1.056,5.2,5.2,0,0,0,2.032.38,5.314,5.314,0,0,0,2.973-.773l0-2.25-1.118,0a2.535,2.535,0,0,1-2.54-2.531l0-1.223,8.523-.015.015,8.338a13.477,13.477,0,0,1-3.49,2.045A11.966,11.966,0,0,1,111.3,105.836Z" transform="translate(-76.962 -86.486)" fill="#0074ff"/><g transform="translate(43.837)"><path d="M192.967,105.532a10.978,10.978,0,0,1-3.991-.692,9.4,9.4,0,0,1-3.123-1.938,8.649,8.649,0,0,1-2.052-3.014,10.164,10.164,0,0,1-.74-3.92V95.9a10.312,10.312,0,0,1,.675-3.769,9.3,9.3,0,0,1,1.922-3.073,9.023,9.023,0,0,1,2.946-2.068,9.214,9.214,0,0,1,3.749-.757,9.731,9.731,0,0,1,4.145.811,8.179,8.179,0,0,1,2.9,2.194,9.3,9.3,0,0,1,1.711,3.2,18.8,18.8,0,0,1,.537,5.2l-12.344.022a3.8,3.8,0,0,0,1.419,2.282,4.284,4.284,0,0,0,2.576.745,4.919,4.919,0,0,0,2.584-.684,2.91,2.91,0,0,1,3.315.3l1.776,1.466a9.964,9.964,0,0,1-3.286,2.734A10.1,10.1,0,0,1,192.967,105.532Zm2.64-11.19a4.1,4.1,0,0,0-1.027-2.436,2.87,2.87,0,0,0-2.184-.9,2.722,2.722,0,0,0-2.113.907,4.8,4.8,0,0,0-1.087,2.44Z" transform="translate(-183.061 -86.232)" fill="#0074ff"/></g></g><g transform="translate(108.218)"><path d="M489.78,39.961h0a12.551,12.551,0,0,0,5.139-24.008,16.232,16.232,0,0,0-29.909-8.459,11.473,11.473,0,0,0-1.2-.068A12.569,12.569,0,0,0,451.989,15.9a1.468,1.468,0,1,0,2.774.962,9.63,9.63,0,0,1,9.056-6.5,10.279,10.279,0,0,1,1.694.171l1.025.181.509-.908a13.351,13.351,0,0,1,11.578-6.869h.017a13.348,13.348,0,0,1,13.347,13.331c0,.022-.011.092-.018.143a4.089,4.089,0,0,0-.046.468l-.033,1.078,1.019.354a9.62,9.62,0,0,1-3.133,18.714,1.468,1.468,0,0,0,0,2.936Z" transform="translate(-451.907 0)" fill="#0074ff"/></g></g></g></svg>